# 3ds Max Wavefront OBJ Exporter v0.99 - (c)2007 guruware
# 파일 생성됨: 22.06.2020 00:58:52

mtllib 그래픽스 모델링\작업후\한번더 최종\Fire_22.mtl

#
# object Box004
#

v  132.1940 0.0000 -102.9401
v  135.6049 0.0000 -106.5358
v  139.4542 0.0000 -102.8843
v  136.0433 0.0000 -99.2887
v  136.0433 58.4885 -99.2887
v  132.1940 58.4885 -102.9401
v  139.4542 58.4885 -102.8843
v  135.6049 58.4885 -106.5358
# 8 vertices

vn -0.8162 -0.5774 0.0215
vn -0.0215 -0.5774 -0.8162
vn 0.8162 -0.5774 -0.0215
vn 0.0215 -0.5774 0.8162
vn 0.0264 0.0000 0.9997
vn -0.9997 0.0000 0.0264
vn 0.9997 0.0000 -0.0264
vn -0.0264 0.0000 -0.9997
# 8 vertex normals

vt 1.0000 0.0000 0.0000
vt 1.0000 1.0000 0.0000
vt 0.0000 1.0000 0.0000
vt 0.0000 0.0000 0.0000
# 4 texture coords

o Box004
g Box004
usemtl wire_135110008
s 2
f 1/1/1 2/2/2 3/3/3 
f 3/3/3 4/4/4 1/1/1 
s 8
f 1/4/1 4/1/4 5/2/5 
f 5/2/5 6/3/6 1/4/1 
s 16
f 4/4/4 3/1/3 7/2/7 
f 7/2/7 5/3/5 4/4/4 
s 32
f 3/4/3 2/1/2 8/2/8 
f 8/2/8 7/3/7 3/4/3 
s 64
f 2/4/2 1/1/1 6/2/6 
f 6/2/6 8/3/8 2/4/2 
# 0 polygons - 10 triangles

