# 3ds Max Wavefront OBJ Exporter v0.99 - (c)2007 guruware
# 파일 생성됨: 21.06.2020 22:38:08

mtllib 그래픽스 모델링\작업후\한번더 최종\Ground_21.mtl

#
# object Ground1
#

v  -180.2552 20.5087 -117.8955
v  -180.2552 20.5087 -58.4899
v  -67.7920 20.5087 -117.8955
v  -67.7920 20.5087 -58.4899
v  -67.7920 -1.5753 -58.4899
v  -180.2552 -1.5753 -58.4899
v  -67.7920 -1.5753 -117.8955
v  -180.2552 -1.5753 -117.8955
# 8 vertices

vn -0.5774 0.5774 -0.5774
vn -0.5774 0.5774 0.5774
vn 0.5774 0.5774 -0.5774
vn 0.5774 0.5774 0.5774
vn 0.5774 -0.5774 0.5774
vn -0.5774 -0.5774 0.5774
vn 0.5774 -0.5774 -0.5774
vn -0.5774 -0.5774 -0.5774
# 8 vertex normals

vt 0.0000 1.0000 0.0000
vt 0.0000 0.0000 0.0000
vt 1.0000 1.0000 0.0000
vt 1.0000 0.0000 0.0000
# 4 texture coords

o Ground1
g Ground1
usemtl wire_027177027
s 2
f 1/1/1 2/2/2 3/3/3 
f 4/4/4 3/3/3 2/2/2 
s 4
f 5/2/5 6/4/6 7/1/7 
f 8/3/8 7/1/7 6/4/6 
s 8
f 4/4/4 2/2/2 5/3/5 
f 6/1/6 5/3/5 2/2/2 
s 16
f 3/4/3 4/2/4 7/3/7 
f 5/1/5 7/3/7 4/2/4 
s 32
f 1/4/1 3/2/3 8/3/8 
f 7/1/7 8/3/8 3/2/3 
s 64
f 2/4/2 1/2/1 6/3/6 
f 8/1/8 6/3/6 1/2/1 
# 0 polygons - 12 triangles

#
# object Ground2
#

v  -36.5124 20.5087 -159.2553
v  -129.3060 20.5087 -159.4351
v  -36.5396 20.5087 -116.6149
v  -129.3332 20.5087 -116.7947
v  -129.3332 -8.7992 -116.7947
v  -129.3060 -8.7992 -159.4351
v  -36.5396 -8.7992 -116.6149
v  -36.5124 -8.7992 -159.2553
# 8 vertices

vn 0.5777 0.5774 -0.5762
vn -0.5770 0.5774 -0.5785
vn 0.5770 0.5774 0.5785
vn -0.5777 0.5774 0.5762
vn -0.5777 -0.5774 0.5762
vn -0.5770 -0.5774 -0.5785
vn 0.5770 -0.5774 0.5785
vn 0.5777 -0.5774 -0.5762
# 8 vertex normals

vt 0.0000 1.0000 0.0000
vt 0.0000 0.0000 0.0000
vt 1.0000 1.0000 0.0000
vt 1.0000 0.0000 0.0000
# 4 texture coords

o Ground2
g Ground2
usemtl wire_027177027
s 2
f 9/5/9 10/6/10 11/7/11 
f 12/8/12 11/7/11 10/6/10 
s 4
f 13/6/13 14/8/14 15/5/15 
f 16/7/16 15/5/15 14/8/14 
s 8
f 12/8/12 10/6/10 13/7/13 
f 14/5/14 13/7/13 10/6/10 
s 16
f 11/8/11 12/6/12 15/7/15 
f 13/5/13 15/7/15 12/6/12 
s 32
f 9/8/9 11/6/11 16/7/16 
f 15/5/15 16/7/16 11/6/11 
s 64
f 10/8/10 9/6/9 14/7/14 
f 16/5/16 14/7/14 9/6/9 
# 0 polygons - 12 triangles

#
# object Ground3
#

v  -7.1539 20.5087 122.2558
v  -67.6916 20.5087 122.1277
v  -7.1724 20.5087 152.6516
v  -67.7102 20.5087 152.5235
v  -67.7102 -8.7992 152.5235
v  -67.6916 -8.7992 122.1277
v  -7.1724 -8.7992 152.6516
v  -7.1539 -8.7992 122.2558
# 8 vertices

vn 0.5778 0.5774 -0.5765
vn -0.5769 0.5774 -0.5782
vn 0.5769 0.5774 0.5782
vn -0.5778 0.5774 0.5765
vn -0.5778 -0.5774 0.5765
vn -0.5769 -0.5774 -0.5782
vn 0.5769 -0.5774 0.5782
vn 0.5778 -0.5774 -0.5765
# 8 vertex normals

vt 0.0000 1.0000 0.0000
vt 0.0000 0.0000 0.0000
vt 1.0000 1.0000 0.0000
vt 1.0000 0.0000 0.0000
# 4 texture coords

o Ground3
g Ground3
usemtl wire_027177027
s 2
f 17/9/17 18/10/18 19/11/19 
f 20/12/20 19/11/19 18/10/18 
s 4
f 21/10/21 22/12/22 23/9/23 
f 24/11/24 23/9/23 22/12/22 
s 8
f 20/12/20 18/10/18 21/11/21 
f 22/9/22 21/11/21 18/10/18 
s 16
f 19/12/19 20/10/20 23/11/23 
f 21/9/21 23/11/23 20/10/20 
s 32
f 17/12/17 19/10/19 24/11/24 
f 23/9/23 24/11/24 19/10/19 
s 64
f 18/12/18 17/10/17 22/11/22 
f 24/9/24 22/11/22 17/10/17 
# 0 polygons - 12 triangles

#
# object Ground004
#

v  -180.2552 20.5087 -59.3467
v  -180.2552 20.5087 0.0589
v  -67.7920 20.5087 -59.3467
v  -67.7920 20.5087 0.0589
v  -67.7920 -1.5753 0.0589
v  -180.2552 -1.5753 0.0589
v  -67.7920 -1.5753 -59.3467
v  -180.2552 -1.5753 -59.3467
# 8 vertices

vn -0.5774 0.5774 -0.5774
vn -0.5774 0.5774 0.5774
vn 0.5774 0.5774 -0.5774
vn 0.5774 0.5774 0.5774
vn 0.5774 -0.5774 0.5774
vn -0.5774 -0.5774 0.5774
vn 0.5774 -0.5774 -0.5774
vn -0.5774 -0.5774 -0.5774
# 8 vertex normals

vt 0.0000 1.0000 0.0000
vt 0.0000 0.0000 0.0000
vt 1.0000 1.0000 0.0000
vt 1.0000 0.0000 0.0000
# 4 texture coords

o Ground004
g Ground004
usemtl wire_027177027
s 2
f 25/13/25 26/14/26 27/15/27 
f 28/16/28 27/15/27 26/14/26 
s 4
f 29/14/29 30/16/30 31/13/31 
f 32/15/32 31/13/31 30/16/30 
s 8
f 28/16/28 26/14/26 29/15/29 
f 30/13/30 29/15/29 26/14/26 
s 16
f 27/16/27 28/14/28 31/15/31 
f 29/13/29 31/15/31 28/14/28 
s 32
f 25/16/25 27/14/27 32/15/32 
f 31/13/31 32/15/32 27/14/27 
s 64
f 26/16/26 25/14/25 30/15/30 
f 32/13/32 30/15/30 25/14/25 
# 0 polygons - 12 triangles

#
# object Ground005
#

v  -180.2552 20.5087 -1.2063
v  -180.2552 20.5087 58.1993
v  -67.7920 20.5087 -1.2063
v  -67.7920 20.5087 58.1993
v  -67.7920 -1.5753 58.1993
v  -180.2552 -1.5753 58.1993
v  -67.7920 -1.5753 -1.2063
v  -180.2552 -1.5753 -1.2063
# 8 vertices

vn -0.5774 0.5774 -0.5774
vn -0.5774 0.5774 0.5774
vn 0.5774 0.5774 -0.5774
vn 0.5774 0.5774 0.5774
vn 0.5774 -0.5774 0.5774
vn -0.5774 -0.5774 0.5774
vn 0.5774 -0.5774 -0.5774
vn -0.5774 -0.5774 -0.5774
# 8 vertex normals

vt 0.0000 1.0000 0.0000
vt 0.0000 0.0000 0.0000
vt 1.0000 1.0000 0.0000
vt 1.0000 0.0000 0.0000
# 4 texture coords

o Ground005
g Ground005
usemtl wire_027177027
s 2
f 33/17/33 34/18/34 35/19/35 
f 36/20/36 35/19/35 34/18/34 
s 4
f 37/18/37 38/20/38 39/17/39 
f 40/19/40 39/17/39 38/20/38 
s 8
f 36/20/36 34/18/34 37/19/37 
f 38/17/38 37/19/37 34/18/34 
s 16
f 35/20/35 36/18/36 39/19/39 
f 37/17/37 39/19/39 36/18/36 
s 32
f 33/20/33 35/18/35 40/19/40 
f 39/17/39 40/19/40 35/18/35 
s 64
f 34/20/34 33/18/33 38/19/38 
f 40/17/40 38/19/38 33/18/33 
# 0 polygons - 12 triangles

#
# object Ground006
#

v  -180.2552 20.5087 58.0886
v  -180.2552 20.5087 117.4942
v  -67.7920 20.5087 58.0886
v  -67.7920 20.5087 117.4942
v  -67.7920 -1.5753 117.4942
v  -180.2552 -1.5753 117.4942
v  -67.7920 -1.5753 58.0886
v  -180.2552 -1.5753 58.0886
# 8 vertices

vn -0.5774 0.5774 -0.5774
vn -0.5774 0.5774 0.5774
vn 0.5774 0.5774 -0.5774
vn 0.5774 0.5774 0.5774
vn 0.5774 -0.5774 0.5774
vn -0.5774 -0.5774 0.5774
vn 0.5774 -0.5774 -0.5774
vn -0.5774 -0.5774 -0.5774
# 8 vertex normals

vt 0.0000 1.0000 0.0000
vt 0.0000 0.0000 0.0000
vt 1.0000 1.0000 0.0000
vt 1.0000 0.0000 0.0000
# 4 texture coords

o Ground006
g Ground006
usemtl wire_027177027
s 2
f 41/21/41 42/22/42 43/23/43 
f 44/24/44 43/23/43 42/22/42 
s 4
f 45/22/45 46/24/46 47/21/47 
f 48/23/48 47/21/47 46/24/46 
s 8
f 44/24/44 42/22/42 45/23/45 
f 46/21/46 45/23/45 42/22/42 
s 16
f 43/24/43 44/22/44 47/23/47 
f 45/21/45 47/23/47 44/22/44 
s 32
f 41/24/41 43/22/43 48/23/48 
f 47/21/47 48/23/48 43/22/43 
s 64
f 42/24/42 41/22/41 46/23/46 
f 48/21/48 46/23/46 41/22/41 
# 0 polygons - 12 triangles

#
# object Ground007
#

v  52.4372 20.5087 -159.2553
v  -40.3564 20.5087 -159.4351
v  52.4100 20.5087 -116.6149
v  -40.3836 20.5087 -116.7947
v  -40.3836 -8.7992 -116.7947
v  -40.3564 -8.7992 -159.4351
v  52.4100 -8.7992 -116.6149
v  52.4372 -8.7992 -159.2553
# 8 vertices

vn 0.5777 0.5774 -0.5762
vn -0.5770 0.5774 -0.5785
vn 0.5770 0.5774 0.5785
vn -0.5777 0.5774 0.5762
vn -0.5777 -0.5774 0.5762
vn -0.5770 -0.5774 -0.5785
vn 0.5770 -0.5774 0.5785
vn 0.5777 -0.5774 -0.5762
# 8 vertex normals

vt 0.0000 1.0000 0.0000
vt 0.0000 0.0000 0.0000
vt 1.0000 1.0000 0.0000
vt 1.0000 0.0000 0.0000
# 4 texture coords

o Ground007
g Ground007
usemtl wire_027177027
s 2
f 49/25/49 50/26/50 51/27/51 
f 52/28/52 51/27/51 50/26/50 
s 4
f 53/26/53 54/28/54 55/25/55 
f 56/27/56 55/25/55 54/28/54 
s 8
f 52/28/52 50/26/50 53/27/53 
f 54/25/54 53/27/53 50/26/50 
s 16
f 51/28/51 52/26/52 55/27/55 
f 53/25/53 55/27/55 52/26/52 
s 32
f 49/28/49 51/26/51 56/27/56 
f 55/25/55 56/27/56 51/26/51 
s 64
f 50/28/50 49/26/49 54/27/54 
f 56/25/56 54/27/54 49/26/49 
# 0 polygons - 12 triangles

#
# object Ground008
#

v  -180.2552 20.5087 115.3886
v  -180.2552 20.5087 174.7942
v  -67.7920 20.5087 115.3886
v  -67.7920 20.5087 174.7942
v  -67.7920 -1.5753 174.7942
v  -180.2552 -1.5753 174.7942
v  -67.7920 -1.5753 115.3886
v  -180.2552 -1.5753 115.3886
# 8 vertices

vn -0.5774 0.5774 -0.5774
vn -0.5774 0.5774 0.5774
vn 0.5774 0.5774 -0.5774
vn 0.5774 0.5774 0.5774
vn 0.5774 -0.5774 0.5774
vn -0.5774 -0.5774 0.5774
vn 0.5774 -0.5774 -0.5774
vn -0.5774 -0.5774 -0.5774
# 8 vertex normals

vt 0.0000 1.0000 0.0000
vt 0.0000 0.0000 0.0000
vt 1.0000 1.0000 0.0000
vt 1.0000 0.0000 0.0000
# 4 texture coords

o Ground008
g Ground008
usemtl wire_027177027
s 2
f 57/29/57 58/30/58 59/31/59 
f 60/32/60 59/31/59 58/30/58 
s 4
f 61/30/61 62/32/62 63/29/63 
f 64/31/64 63/29/63 62/32/62 
s 8
f 60/32/60 58/30/58 61/31/61 
f 62/29/62 61/31/61 58/30/58 
s 16
f 59/32/59 60/30/60 63/31/63 
f 61/29/61 63/31/63 60/30/60 
s 32
f 57/32/57 59/30/59 64/31/64 
f 63/29/63 64/31/64 59/30/59 
s 64
f 58/32/58 57/30/57 62/31/62 
f 64/29/64 62/31/62 57/30/57 
# 0 polygons - 12 triangles

#
# object Ground009
#

v  -36.5124 20.5087 -200.9996
v  -129.3060 20.5087 -201.1794
v  -36.5396 20.5087 -158.3592
v  -129.3332 20.5087 -158.5390
v  -129.3332 -8.7992 -158.5390
v  -129.3060 -8.7992 -201.1794
v  -36.5396 -8.7992 -158.3592
v  -36.5124 -8.7992 -200.9996
# 8 vertices

vn 0.5777 0.5774 -0.5762
vn -0.5770 0.5774 -0.5785
vn 0.5770 0.5774 0.5785
vn -0.5777 0.5774 0.5762
vn -0.5777 -0.5774 0.5762
vn -0.5770 -0.5774 -0.5785
vn 0.5770 -0.5774 0.5785
vn 0.5777 -0.5774 -0.5762
# 8 vertex normals

vt 0.0000 1.0000 0.0000
vt 0.0000 0.0000 0.0000
vt 1.0000 1.0000 0.0000
vt 1.0000 0.0000 0.0000
# 4 texture coords

o Ground009
g Ground009
usemtl wire_027177027
s 2
f 65/33/65 66/34/66 67/35/67 
f 68/36/68 67/35/67 66/34/66 
s 4
f 69/34/69 70/36/70 71/33/71 
f 72/35/72 71/33/71 70/36/70 
s 8
f 68/36/68 66/34/66 69/35/69 
f 70/33/70 69/35/69 66/34/66 
s 16
f 67/36/67 68/34/68 71/35/71 
f 69/33/69 71/35/71 68/34/68 
s 32
f 65/36/65 67/34/67 72/35/72 
f 71/33/71 72/35/72 67/34/67 
s 64
f 66/36/66 65/34/65 70/35/70 
f 72/33/72 70/35/70 65/34/65 
# 0 polygons - 12 triangles

#
# object Ground010
#

v  52.4372 20.5087 -200.9996
v  -40.3564 20.5087 -201.1794
v  52.4100 20.5087 -158.3592
v  -40.3836 20.5087 -158.5390
v  -40.3836 -8.7992 -158.5390
v  -40.3564 -8.7992 -201.1794
v  52.4100 -8.7992 -158.3592
v  52.4372 -8.7992 -200.9996
# 8 vertices

vn 0.5777 0.5774 -0.5762
vn -0.5770 0.5774 -0.5785
vn 0.5770 0.5774 0.5785
vn -0.5777 0.5774 0.5762
vn -0.5777 -0.5774 0.5762
vn -0.5770 -0.5774 -0.5785
vn 0.5770 -0.5774 0.5785
vn 0.5777 -0.5774 -0.5762
# 8 vertex normals

vt 0.0000 1.0000 0.0000
vt 0.0000 0.0000 0.0000
vt 1.0000 1.0000 0.0000
vt 1.0000 0.0000 0.0000
# 4 texture coords

o Ground010
g Ground010
usemtl wire_027177027
s 2
f 73/37/73 74/38/74 75/39/75 
f 76/40/76 75/39/75 74/38/74 
s 4
f 77/38/77 78/40/78 79/37/79 
f 80/39/80 79/37/79 78/40/78 
s 8
f 76/40/76 74/38/74 77/39/77 
f 78/37/78 77/39/77 74/38/74 
s 16
f 75/40/75 76/38/76 79/39/79 
f 77/37/77 79/39/79 76/38/76 
s 32
f 73/40/73 75/38/75 80/39/80 
f 79/37/79 80/39/80 75/38/75 
s 64
f 74/40/74 73/38/73 78/39/78 
f 80/37/80 78/39/78 73/38/73 
# 0 polygons - 12 triangles

