# 3ds Max Wavefront OBJ Exporter v0.99 - (c)2007 guruware
# 파일 생성됨: 21.06.2020 21:45:51

mtllib 그래픽스 모델링\작업후\한번더 최종\Road_21.mtl

#
# object Road_1
#

v  34.6119 0.1590 78.0752
v  34.6119 0.4604 78.0752
v  49.5599 0.4604 85.9223
v  49.5599 0.1590 85.9223
v  19.8821 0.1590 106.1341
v  19.8821 0.4604 106.1341
v  34.8301 0.1590 113.9813
v  34.8301 0.4604 113.9813
# 8 vertices

vn 1.0000 0.0000 0.0000
vn 0.0000 0.0000 -1.0000
vn -1.0000 0.0000 0.0000
vn 0.0000 0.0000 1.0000
vn 0.0000 -1.0000 0.0000
vn 0.0000 1.0000 0.0000
# 6 vertex normals

vt 2.3390 0.9691 0.0000
vt -1.3390 0.9691 0.0000
vt -1.3390 0.0309 0.0000
vt 2.3390 0.0309 0.0000
# 4 texture coords

o Road_1
g Road_1
usemtl Materiais_001
s off
f 1/1/1 2/2/1 3/3/1 
f 3/3/1 4/4/1 1/1/1 
f 5/1/2 6/2/2 2/3/2 
f 2/3/2 1/4/2 5/1/2 
f 7/1/3 8/2/3 6/3/3 
f 6/3/3 5/4/3 7/1/3 
f 4/1/4 3/2/4 8/3/4 
f 8/3/4 7/4/4 4/1/4 
f 4/1/5 7/2/5 5/3/5 
f 5/3/5 1/4/5 4/1/5 
f 8/1/6 3/2/6 2/3/6 
f 2/3/6 6/4/6 8/1/6 
# 0 polygons - 12 triangles

#
# object Road_2
#

v  49.3094 0.1590 50.0778
v  49.3094 0.4604 50.0778
v  64.2574 0.4604 57.9249
v  64.2574 0.1590 57.9249
v  34.5796 0.1590 78.1367
v  34.5796 0.4604 78.1367
v  49.5276 0.1590 85.9839
v  49.5276 0.4604 85.9839
# 8 vertices

vn 1.0000 0.0000 0.0000
vn 0.0000 0.0000 -1.0000
vn -1.0000 0.0000 0.0000
vn 0.0000 0.0000 1.0000
vn 0.0000 -1.0000 0.0000
vn 0.0000 1.0000 0.0000
# 6 vertex normals

vt 2.3390 0.9691 0.0000
vt -1.3390 0.9691 0.0000
vt -1.3390 0.0309 0.0000
vt 2.3390 0.0309 0.0000
# 4 texture coords

o Road_2
g Road_2
usemtl Materiais_001
s off
f 9/5/7 10/6/7 11/7/7 
f 11/7/7 12/8/7 9/5/7 
f 13/5/8 14/6/8 10/7/8 
f 10/7/8 9/8/8 13/5/8 
f 15/5/9 16/6/9 14/7/9 
f 14/7/9 13/8/9 15/5/9 
f 12/5/10 11/6/10 16/7/10 
f 16/7/10 15/8/10 12/5/10 
f 12/5/11 15/6/11 13/7/11 
f 13/7/11 9/8/11 12/5/11 
f 16/5/12 11/6/12 10/7/12 
f 10/7/12 14/8/12 16/5/12 
# 0 polygons - 12 triangles

#
# object Road_3
#

v  64.0293 0.1590 22.0376
v  64.0293 0.4604 22.0376
v  78.9774 0.4604 29.8848
v  78.9774 0.1590 29.8848
v  49.2995 0.1590 50.0966
v  49.2995 0.4604 50.0966
v  64.2476 0.1590 57.9437
v  64.2476 0.4604 57.9437
# 8 vertices

vn 1.0000 0.0000 0.0000
vn 0.0000 0.0000 -1.0000
vn -1.0000 0.0000 0.0000
vn 0.0000 0.0000 1.0000
vn 0.0000 -1.0000 0.0000
vn 0.0000 1.0000 0.0000
# 6 vertex normals

vt 2.3390 0.9691 0.0000
vt -1.3390 0.9691 0.0000
vt -1.3390 0.0309 0.0000
vt 2.3390 0.0309 0.0000
# 4 texture coords

o Road_3
g Road_3
usemtl Materiais_001
s off
f 17/9/13 18/10/13 19/11/13 
f 19/11/13 20/12/13 17/9/13 
f 21/9/14 22/10/14 18/11/14 
f 18/11/14 17/12/14 21/9/14 
f 23/9/15 24/10/15 22/11/15 
f 22/11/15 21/12/15 23/9/15 
f 20/9/16 19/10/16 24/11/16 
f 24/11/16 23/12/16 20/9/16 
f 20/9/17 23/10/17 21/11/17 
f 21/11/17 17/12/17 20/9/17 
f 24/9/18 19/10/18 18/11/18 
f 18/11/18 22/12/18 24/9/18 
# 0 polygons - 12 triangles

#
# object Road_4
#

v  78.6968 0.1590 -5.9024
v  78.6968 0.4604 -5.9024
v  93.6449 0.4604 1.9447
v  93.6449 0.1590 1.9447
v  63.9670 0.1590 22.1565
v  63.9670 0.4604 22.1565
v  78.9150 0.1590 30.0036
v  78.9150 0.4604 30.0036
# 8 vertices

vn 1.0000 0.0000 0.0000
vn 0.0000 0.0000 -1.0000
vn -1.0000 0.0000 0.0000
vn 0.0000 0.0000 1.0000
vn 0.0000 -1.0000 0.0000
vn 0.0000 1.0000 0.0000
# 6 vertex normals

vt 2.3390 0.9691 0.0000
vt -1.3390 0.9691 0.0000
vt -1.3390 0.0309 0.0000
vt 2.3390 0.0309 0.0000
# 4 texture coords

o Road_4
g Road_4
usemtl Materiais_001
s off
f 25/13/19 26/14/19 27/15/19 
f 27/15/19 28/16/19 25/13/19 
f 29/13/20 30/14/20 26/15/20 
f 26/15/20 25/16/20 29/13/20 
f 31/13/21 32/14/21 30/15/21 
f 30/15/21 29/16/21 31/13/21 
f 28/13/22 27/14/22 32/15/22 
f 32/15/22 31/16/22 28/13/22 
f 28/13/23 31/14/23 29/15/23 
f 29/15/23 25/16/23 28/13/23 
f 32/13/24 27/14/24 26/15/24 
f 26/15/24 30/16/24 32/13/24 
# 0 polygons - 12 triangles

#
# object Road_5
#

v  93.2794 0.1590 -33.6809
v  93.2794 0.4604 -33.6809
v  108.2274 0.4604 -25.8338
v  108.2274 0.1590 -25.8338
v  78.5496 0.1590 -5.6220
v  78.5496 0.4604 -5.6220
v  93.4976 0.1590 2.2251
v  93.4976 0.4604 2.2251
# 8 vertices

vn 1.0000 0.0000 0.0000
vn 0.0000 0.0000 -1.0000
vn -1.0000 0.0000 0.0000
vn 0.0000 0.0000 1.0000
vn 0.0000 -1.0000 0.0000
vn 0.0000 1.0000 0.0000
# 6 vertex normals

vt 2.3390 0.9691 0.0000
vt -1.3390 0.9691 0.0000
vt -1.3390 0.0309 0.0000
vt 2.3390 0.0309 0.0000
# 4 texture coords

o Road_5
g Road_5
usemtl Materiais_001
s off
f 33/17/25 34/18/25 35/19/25 
f 35/19/25 36/20/25 33/17/25 
f 37/17/26 38/18/26 34/19/26 
f 34/19/26 33/20/26 37/17/26 
f 39/17/27 40/18/27 38/19/27 
f 38/19/27 37/20/27 39/17/27 
f 36/17/28 35/18/28 40/19/28 
f 40/19/28 39/20/28 36/17/28 
f 36/17/29 39/18/29 37/19/29 
f 37/19/29 33/20/29 36/17/29 
f 40/17/30 35/18/30 34/19/30 
f 34/19/30 38/20/30 40/17/30 
# 0 polygons - 12 triangles

#
# object Road_6
#

v  20.3457 0.1590 106.0392
v  20.3457 0.4604 106.0392
v  35.2937 0.4604 113.8863
v  35.2937 0.1590 113.8863
v  5.6159 0.1590 134.0981
v  5.6159 0.4604 134.0981
v  20.5639 0.1590 141.9452
v  20.5639 0.4604 141.9452
# 8 vertices

vn 1.0000 0.0000 0.0000
vn 0.0000 0.0000 -1.0000
vn -1.0000 0.0000 0.0000
vn 0.0000 0.0000 1.0000
vn 0.0000 -1.0000 0.0000
vn 0.0000 1.0000 0.0000
# 6 vertex normals

vt 2.3390 0.9691 0.0000
vt -1.3390 0.9691 0.0000
vt -1.3390 0.0309 0.0000
vt 2.3390 0.0309 0.0000
# 4 texture coords

o Road_6
g Road_6
usemtl Materiais_001
s off
f 41/21/31 42/22/31 43/23/31 
f 43/23/31 44/24/31 41/21/31 
f 45/21/32 46/22/32 42/23/32 
f 42/23/32 41/24/32 45/21/32 
f 47/21/33 48/22/33 46/23/33 
f 46/23/33 45/24/33 47/21/33 
f 44/21/34 43/22/34 48/23/34 
f 48/23/34 47/24/34 44/21/34 
f 44/21/35 47/22/35 45/23/35 
f 45/23/35 41/24/35 44/21/35 
f 48/21/36 43/22/36 42/23/36 
f 42/23/36 46/24/36 48/21/36 
# 0 polygons - 12 triangles

#
# object Road_7
#

v  5.6005 0.1590 133.8092
v  5.6005 0.4604 133.8092
v  20.5485 0.4604 141.6563
v  20.5485 0.1590 141.6563
v  -9.1293 0.1590 161.8681
v  -9.1293 0.4604 161.8681
v  5.8187 0.1590 169.7152
v  5.8187 0.4604 169.7152
# 8 vertices

vn 1.0000 0.0000 0.0000
vn 0.0000 0.0000 -1.0000
vn -1.0000 0.0000 0.0000
vn 0.0000 0.0000 1.0000
vn 0.0000 -1.0000 0.0000
vn 0.0000 1.0000 0.0000
# 6 vertex normals

vt 2.3390 0.9691 0.0000
vt -1.3390 0.9691 0.0000
vt -1.3390 0.0309 0.0000
vt 2.3390 0.0309 0.0000
# 4 texture coords

o Road_7
g Road_7
usemtl Materiais_001
s off
f 49/25/37 50/26/37 51/27/37 
f 51/27/37 52/28/37 49/25/37 
f 53/25/38 54/26/38 50/27/38 
f 50/27/38 49/28/38 53/25/38 
f 55/25/39 56/26/39 54/27/39 
f 54/27/39 53/28/39 55/25/39 
f 52/25/40 51/26/40 56/27/40 
f 56/27/40 55/28/40 52/25/40 
f 52/25/41 55/26/41 53/27/41 
f 53/27/41 49/28/41 52/25/41 
f 56/25/42 51/26/42 50/27/42 
f 50/27/42 54/28/42 56/25/42 
# 0 polygons - 12 triangles

#
# object Road_8
#

v  16.7445 0.1038 14.1109
v  16.7445 0.4051 14.1109
v  16.7445 0.4051 24.2228
v  16.7445 0.1038 24.2228
v  -14.9458 0.1038 14.1109
v  -14.9458 0.4051 14.1109
v  -14.9458 0.1038 24.2228
v  -14.9458 0.4051 24.2228
# 8 vertices

vn 1.0000 0.0000 0.0000
vn 0.0000 0.0000 -1.0000
vn -1.0000 0.0000 0.0000
vn 0.0000 0.0000 1.0000
vn 0.0000 -1.0000 0.0000
vn 0.0000 1.0000 0.0000
# 6 vertex normals

vt 2.3390 0.9691 0.0000
vt -1.3390 0.9691 0.0000
vt -1.3390 0.0309 0.0000
vt 2.3390 0.0309 0.0000
# 4 texture coords

o Road_8
g Road_8
usemtl Materiais_001
s off
f 57/29/43 58/30/43 59/31/43 
f 59/31/43 60/32/43 57/29/43 
f 61/29/44 62/30/44 58/31/44 
f 58/31/44 57/32/44 61/29/44 
f 63/29/45 64/30/45 62/31/45 
f 62/31/45 61/32/45 63/29/45 
f 60/29/46 59/30/46 64/31/46 
f 64/31/46 63/32/46 60/29/46 
f 60/29/47 63/30/47 61/31/47 
f 61/31/47 57/32/47 60/29/47 
f 64/29/48 59/30/48 58/31/48 
f 58/31/48 62/32/48 64/29/48 
# 0 polygons - 12 triangles

#
# object Road_9
#

v  -14.8518 0.1038 14.1109
v  -14.8518 0.4051 14.1109
v  -14.8518 0.4051 24.2228
v  -14.8518 0.1038 24.2228
v  -46.5421 0.1038 14.1109
v  -46.5421 0.4051 14.1109
v  -46.5421 0.1038 24.2228
v  -46.5421 0.4051 24.2228
# 8 vertices

vn 1.0000 0.0000 0.0000
vn 0.0000 0.0000 -1.0000
vn -1.0000 0.0000 0.0000
vn 0.0000 0.0000 1.0000
vn 0.0000 -1.0000 0.0000
vn 0.0000 1.0000 0.0000
# 6 vertex normals

vt 2.3390 0.9691 0.0000
vt -1.3390 0.9691 0.0000
vt -1.3390 0.0309 0.0000
vt 2.3390 0.0309 0.0000
# 4 texture coords

o Road_9
g Road_9
usemtl Materiais_001
s off
f 65/33/49 66/34/49 67/35/49 
f 67/35/49 68/36/49 65/33/49 
f 69/33/50 70/34/50 66/35/50 
f 66/35/50 65/36/50 69/33/50 
f 71/33/51 72/34/51 70/35/51 
f 70/35/51 69/36/51 71/33/51 
f 68/33/52 67/34/52 72/35/52 
f 72/35/52 71/36/52 68/33/52 
f 68/33/53 71/34/53 69/35/53 
f 69/35/53 65/36/53 68/33/53 
f 72/33/54 67/34/54 66/35/54 
f 66/35/54 70/36/54 72/33/54 
# 0 polygons - 12 triangles

#
# object Road_10
#

v  48.3688 0.1038 14.1109
v  48.3688 0.4051 14.1109
v  48.3688 0.4051 24.2228
v  48.3688 0.1038 24.2228
v  16.6785 0.1038 14.1109
v  16.6785 0.4051 14.1109
v  16.6785 0.1038 24.2228
v  16.6785 0.4051 24.2228
# 8 vertices

vn 1.0000 0.0000 0.0000
vn 0.0000 0.0000 -1.0000
vn -1.0000 0.0000 0.0000
vn 0.0000 0.0000 1.0000
vn 0.0000 -1.0000 0.0000
vn 0.0000 1.0000 0.0000
# 6 vertex normals

vt 2.3390 0.9691 0.0000
vt -1.3390 0.9691 0.0000
vt -1.3390 0.0309 0.0000
vt 2.3390 0.0309 0.0000
# 4 texture coords

o Road_10
g Road_10
usemtl Materiais_001
s off
f 73/37/55 74/38/55 75/39/55 
f 75/39/55 76/40/55 73/37/55 
f 77/37/56 78/38/56 74/39/56 
f 74/39/56 73/40/56 77/37/56 
f 79/37/57 80/38/57 78/39/57 
f 78/39/57 77/40/57 79/37/57 
f 76/37/58 75/38/58 80/39/58 
f 80/39/58 79/40/58 76/37/58 
f 76/37/59 79/38/59 77/39/59 
f 77/39/59 73/40/59 76/37/59 
f 80/37/60 75/38/60 74/39/60 
f 74/39/60 78/40/60 80/37/60 
# 0 polygons - 12 triangles

#
# object Road_11
#

v  79.7741 0.1038 14.1109
v  79.7741 0.4051 14.1109
v  79.7741 0.4051 24.2228
v  79.7741 0.1038 24.2228
v  48.0838 0.1038 14.1109
v  48.0838 0.4051 14.1109
v  48.0838 0.1038 24.2228
v  48.0838 0.4051 24.2228
# 8 vertices

vn 1.0000 0.0000 0.0000
vn 0.0000 0.0000 -1.0000
vn -1.0000 0.0000 0.0000
vn 0.0000 0.0000 1.0000
vn 0.0000 -1.0000 0.0000
vn 0.0000 1.0000 0.0000
# 6 vertex normals

vt 2.3390 0.9691 0.0000
vt -1.3390 0.9691 0.0000
vt -1.3390 0.0309 0.0000
vt 2.3390 0.0309 0.0000
# 4 texture coords

o Road_11
g Road_11
usemtl Materiais_001
s off
f 81/41/61 82/42/61 83/43/61 
f 83/43/61 84/44/61 81/41/61 
f 85/41/62 86/42/62 82/43/62 
f 82/43/62 81/44/62 85/41/62 
f 87/41/63 88/42/63 86/43/63 
f 86/43/63 85/44/63 87/41/63 
f 84/41/64 83/42/64 88/43/64 
f 88/43/64 87/44/64 84/41/64 
f 84/41/65 87/42/65 85/43/65 
f 85/43/65 81/44/65 84/41/65 
f 88/41/66 83/42/66 82/43/66 
f 82/43/66 86/44/66 88/41/66 
# 0 polygons - 12 triangles

#
# object Road_12
#

v  63.8958 0.1038 -75.7214
v  63.8958 0.4051 -75.7214
v  63.8958 0.4051 -65.6094
v  63.8958 0.1038 -65.6094
v  32.2055 0.1038 -75.7214
v  32.2055 0.4051 -75.7214
v  32.2055 0.1038 -65.6094
v  32.2055 0.4051 -65.6094
# 8 vertices

vn 1.0000 0.0000 0.0000
vn 0.0000 0.0000 -1.0000
vn -1.0000 0.0000 0.0000
vn 0.0000 0.0000 1.0000
vn 0.0000 -1.0000 0.0000
vn 0.0000 1.0000 0.0000
# 6 vertex normals

vt 2.3390 0.9691 0.0000
vt -1.3390 0.9691 0.0000
vt -1.3390 0.0309 0.0000
vt 2.3390 0.0309 0.0000
# 4 texture coords

o Road_12
g Road_12
usemtl Materiais_001
s off
f 89/45/67 90/46/67 91/47/67 
f 91/47/67 92/48/67 89/45/67 
f 93/45/68 94/46/68 90/47/68 
f 90/47/68 89/48/68 93/45/68 
f 95/45/69 96/46/69 94/47/69 
f 94/47/69 93/48/69 95/45/69 
f 92/45/70 91/46/70 96/47/70 
f 96/47/70 95/48/70 92/45/70 
f 92/45/71 95/46/71 93/47/71 
f 93/47/71 89/48/71 92/45/71 
f 96/45/72 91/46/72 90/47/72 
f 90/47/72 94/48/72 96/45/72 
# 0 polygons - 12 triangles

#
# object Road_13
#

v  32.2995 0.1038 -75.7214
v  32.2995 0.4051 -75.7214
v  32.2995 0.4051 -65.6094
v  32.2995 0.1038 -65.6094
v  0.6092 0.1038 -75.7214
v  0.6092 0.4051 -75.7214
v  0.6092 0.1038 -65.6094
v  0.6092 0.4051 -65.6094
# 8 vertices

vn 1.0000 0.0000 0.0000
vn 0.0000 0.0000 -1.0000
vn -1.0000 0.0000 0.0000
vn 0.0000 0.0000 1.0000
vn 0.0000 -1.0000 0.0000
vn 0.0000 1.0000 0.0000
# 6 vertex normals

vt 2.3390 0.9691 0.0000
vt -1.3390 0.9691 0.0000
vt -1.3390 0.0309 0.0000
vt 2.3390 0.0309 0.0000
# 4 texture coords

o Road_13
g Road_13
usemtl Materiais_001
s off
f 97/49/73 98/50/73 99/51/73 
f 99/51/73 100/52/73 97/49/73 
f 101/49/74 102/50/74 98/51/74 
f 98/51/74 97/52/74 101/49/74 
f 103/49/75 104/50/75 102/51/75 
f 102/51/75 101/52/75 103/49/75 
f 100/49/76 99/50/76 104/51/76 
f 104/51/76 103/52/76 100/49/76 
f 100/49/77 103/50/77 101/51/77 
f 101/51/77 97/52/77 100/49/77 
f 104/49/78 99/50/78 98/51/78 
f 98/51/78 102/52/78 104/49/78 
# 0 polygons - 12 triangles

#
# object Road_14
#

v  95.5201 0.1038 -75.7214
v  95.5201 0.4051 -75.7214
v  95.5201 0.4051 -65.6094
v  95.5201 0.1038 -65.6094
v  63.8298 0.1038 -75.7214
v  63.8298 0.4051 -75.7214
v  63.8298 0.1038 -65.6094
v  63.8298 0.4051 -65.6094
# 8 vertices

vn 1.0000 0.0000 0.0000
vn 0.0000 0.0000 -1.0000
vn -1.0000 0.0000 0.0000
vn 0.0000 0.0000 1.0000
vn 0.0000 -1.0000 0.0000
vn 0.0000 1.0000 0.0000
# 6 vertex normals

vt 2.3390 0.9691 0.0000
vt -1.3390 0.9691 0.0000
vt -1.3390 0.0309 0.0000
vt 2.3390 0.0309 0.0000
# 4 texture coords

o Road_14
g Road_14
usemtl Materiais_001
s off
f 105/53/79 106/54/79 107/55/79 
f 107/55/79 108/56/79 105/53/79 
f 109/53/80 110/54/80 106/55/80 
f 106/55/80 105/56/80 109/53/80 
f 111/53/81 112/54/81 110/55/81 
f 110/55/81 109/56/81 111/53/81 
f 108/53/82 107/54/82 112/55/82 
f 112/55/82 111/56/82 108/53/82 
f 108/53/83 111/54/83 109/55/83 
f 109/55/83 105/56/83 108/53/83 
f 112/53/84 107/54/84 106/55/84 
f 106/55/84 110/56/84 112/53/84 
# 0 polygons - 12 triangles

#
# object Road_15
#

v  126.9254 0.1038 -75.7214
v  126.9254 0.4051 -75.7214
v  126.9254 0.4051 -65.6094
v  126.9254 0.1038 -65.6094
v  95.2352 0.1038 -75.7214
v  95.2352 0.4051 -75.7214
v  95.2352 0.1038 -65.6094
v  95.2352 0.4051 -65.6094
# 8 vertices

vn 1.0000 0.0000 0.0000
vn 0.0000 0.0000 -1.0000
vn -1.0000 0.0000 0.0000
vn 0.0000 0.0000 1.0000
vn 0.0000 -1.0000 0.0000
vn 0.0000 1.0000 0.0000
# 6 vertex normals

vt 2.3390 0.9691 0.0000
vt -1.3390 0.9691 0.0000
vt -1.3390 0.0309 0.0000
vt 2.3390 0.0309 0.0000
# 4 texture coords

o Road_15
g Road_15
usemtl Materiais_001
s off
f 113/57/85 114/58/85 115/59/85 
f 115/59/85 116/60/85 113/57/85 
f 117/57/86 118/58/86 114/59/86 
f 114/59/86 113/60/86 117/57/86 
f 119/57/87 120/58/87 118/59/87 
f 118/59/87 117/60/87 119/57/87 
f 116/57/88 115/58/88 120/59/88 
f 120/59/88 119/60/88 116/57/88 
f 116/57/89 119/58/89 117/59/89 
f 117/59/89 113/60/89 116/57/89 
f 120/57/90 115/58/90 114/59/90 
f 114/59/90 118/60/90 120/57/90 
# 0 polygons - 12 triangles

#
# object Road_017
#

v  107.5334 0.1590 -60.7813
v  107.5334 0.4604 -60.7813
v  122.4814 0.4604 -52.9342
v  122.4814 0.1590 -52.9342
v  92.8036 0.1590 -32.7224
v  92.8036 0.4604 -32.7224
v  107.7516 0.1590 -24.8753
v  107.7516 0.4604 -24.8753
# 8 vertices

vn 1.0000 0.0000 0.0000
vn 0.0000 0.0000 -1.0000
vn -1.0000 0.0000 0.0000
vn 0.0000 0.0000 1.0000
vn 0.0000 -1.0000 0.0000
vn 0.0000 1.0000 0.0000
# 6 vertex normals

vt 2.3390 0.9691 0.0000
vt -1.3390 0.9691 0.0000
vt -1.3390 0.0309 0.0000
vt 2.3390 0.0309 0.0000
# 4 texture coords

o Road_017
g Road_017
usemtl Materiais_001
s off
f 121/61/91 122/62/91 123/63/91 
f 123/63/91 124/64/91 121/61/91 
f 125/61/92 126/62/92 122/63/92 
f 122/63/92 121/64/92 125/61/92 
f 127/61/93 128/62/93 126/63/93 
f 126/63/93 125/64/93 127/61/93 
f 124/61/94 123/62/94 128/63/94 
f 128/63/94 127/64/94 124/61/94 
f 124/61/95 127/62/95 125/63/95 
f 125/63/95 121/64/95 124/61/95 
f 128/61/96 123/62/96 122/63/96 
f 122/63/96 126/64/96 128/61/96 
# 0 polygons - 12 triangles

#
# object Road_018
#

v  121.4392 0.1590 -86.7611
v  121.4392 0.4604 -86.7611
v  136.3872 0.4604 -78.9140
v  136.3872 0.1590 -78.9140
v  106.7094 0.1590 -58.7022
v  106.7094 0.4604 -58.7022
v  121.6574 0.1590 -50.8551
v  121.6574 0.4604 -50.8551
# 8 vertices

vn 1.0000 0.0000 0.0000
vn 0.0000 0.0000 -1.0000
vn -1.0000 0.0000 0.0000
vn 0.0000 0.0000 1.0000
vn 0.0000 -1.0000 0.0000
vn 0.0000 1.0000 0.0000
# 6 vertex normals

vt 2.3390 0.9691 0.0000
vt -1.3390 0.9691 0.0000
vt -1.3390 0.0309 0.0000
vt 2.3390 0.0309 0.0000
# 4 texture coords

o Road_018
g Road_018
usemtl Materiais_001
s off
f 129/65/97 130/66/97 131/67/97 
f 131/67/97 132/68/97 129/65/97 
f 133/65/98 134/66/98 130/67/98 
f 130/67/98 129/68/98 133/65/98 
f 135/65/99 136/66/99 134/67/99 
f 134/67/99 133/68/99 135/65/99 
f 132/65/100 131/66/100 136/67/100 
f 136/67/100 135/68/100 132/65/100 
f 132/65/101 135/66/101 133/67/101 
f 133/67/101 129/68/101 132/65/101 
f 136/65/102 131/66/102 130/67/102 
f 130/67/102 134/68/102 136/65/102 
# 0 polygons - 12 triangles

